<svg width="101" height="19" viewBox="0 0 101 19" fill="none" xmlns="http://www.w3.org/2000/svg">
<path d="M5.77734 15.2051C4.2832 15.2051 3.14062 14.4629 2.55469 13.2422H2.49609V15H0.0644531V0.908203H2.49609V6.42578H2.55469C3.14062 5.18555 4.32227 4.43359 5.78711 4.43359C8.38477 4.43359 10.0547 6.47461 10.0547 9.81445V9.82422C10.0547 13.1543 8.39453 15.2051 5.77734 15.2051ZM5.04492 13.1543C6.60742 13.1543 7.57422 11.8848 7.57422 9.82422V9.81445C7.57422 7.75391 6.59766 6.48438 5.04492 6.48438C3.55078 6.48438 2.49609 7.79297 2.49609 9.81445V9.82422C2.49609 11.8555 3.54102 13.1543 5.04492 13.1543ZM14.6738 15.1758C12.6035 15.1758 11.207 13.8965 11.207 12.0508V12.0312C11.207 10.1953 12.6328 9.0918 15.1426 8.93555L17.8477 8.76953V8.05664C17.8477 7.01172 17.1641 6.37695 15.9336 6.37695C14.7812 6.37695 14.0781 6.91406 13.9219 7.67578L13.9023 7.76367H11.6465L11.6562 7.64648C11.8027 5.81055 13.3945 4.43359 16.0215 4.43359C18.6094 4.43359 20.2793 5.80078 20.2793 7.88086V15H17.8477V13.4082H17.7891C17.1934 14.4922 16.041 15.1758 14.6738 15.1758ZM13.6289 11.9531C13.6289 12.8027 14.332 13.3203 15.3965 13.3203C16.793 13.3203 17.8477 12.3926 17.8477 11.1621V10.3809L15.4844 10.5273C14.2832 10.6055 13.6289 11.123 13.6289 11.9434V11.9531ZM26.8125 15.2051C23.7363 15.2051 21.8125 13.1348 21.8125 9.81445V9.80469C21.8125 6.50391 23.7656 4.43359 26.7832 4.43359C29.5078 4.43359 31.207 6.16211 31.3535 8.23242L31.3633 8.31055H29.0684L29.0488 8.22266C28.8438 7.2168 28.1016 6.40625 26.8125 6.40625C25.2793 6.40625 24.293 7.70508 24.293 9.82422V9.83398C24.293 11.9922 25.2891 13.2422 26.8223 13.2422C28.0527 13.2422 28.834 12.5098 29.0586 11.4258L29.0781 11.3379H31.373L31.3633 11.4062C31.1777 13.5645 29.4297 15.2051 26.8125 15.2051ZM32.9355 15V0.908203H35.3672V8.94531H35.416L39.2832 4.64844H42.0957L37.9941 9.10156L42.2617 15H39.459L36.1875 10.5469L35.3672 11.4062V15H32.9355ZM46.5391 15.166C44.2637 15.166 42.7891 13.4473 42.7891 10.8984C42.7891 7.39258 45.0742 4.67773 47.9453 4.67773C49.6836 4.67773 51.0605 5.79102 51.3242 7.28516H51.373L52.7402 0.908203H54.0293L51.0312 15H49.7324L50.1328 13.0957H50.0938C49.4004 14.3066 47.9941 15.166 46.5391 15.166ZM46.832 14.0234C49.1367 14.0234 50.8066 11.7676 50.8066 8.95508C50.8066 7.09961 49.6934 5.83008 47.9551 5.83008C45.8164 5.83008 44.0781 7.99805 44.0781 10.8301C44.0781 12.7832 45.1328 14.0234 46.832 14.0234ZM53.2773 15L55.4355 4.84375H56.666L56.3438 6.36719H56.3828C57.0566 5.30273 58.0039 4.69727 59.2637 4.69727C59.7617 4.69727 60.25 4.81445 60.4941 4.94141L60.2109 6.18164C59.9863 6.05469 59.4297 5.9375 58.9316 5.9375C57.2812 5.9375 56.2559 7.08008 55.8359 9.01367L54.5664 15H53.2773ZM65.2891 4.67773C67.8477 4.67773 69.4883 6.41602 69.4883 9.07227C69.4883 12.5195 67.2422 15.166 64.2734 15.166C61.7246 15.166 60.0742 13.4277 60.0742 10.7715C60.0742 7.32422 62.3203 4.67773 65.2891 4.67773ZM64.2734 14.0234C66.5195 14.0234 68.1797 11.9043 68.1797 9.11133C68.1797 7.11914 67.0469 5.82031 65.2891 5.82031C63.043 5.82031 61.3828 7.93945 61.3828 10.7324C61.3828 12.7246 62.5156 14.0234 64.2734 14.0234ZM70.6895 18.3691H69.4102L72.291 4.84375H73.5605L73.1504 6.76758H73.1895C73.8926 5.51758 75.25 4.67773 76.6953 4.67773C78.9902 4.67773 80.4355 6.39648 80.4355 9.04297C80.4355 12.5391 78.2383 15.166 75.3574 15.166C73.6387 15.166 72.2715 14.082 71.959 12.5879H71.9102L70.6895 18.3691ZM75.3379 14.0137C77.4961 14.0137 79.166 11.9238 79.166 9.12109C79.166 7.06055 78.1309 5.82031 76.4023 5.82031C74.0781 5.82031 72.4668 8.18359 72.4668 10.8887C72.4668 12.7344 73.5996 14.0137 75.3379 14.0137ZM84.6152 2.73438C84.1367 2.73438 83.7461 2.35352 83.7461 1.875C83.7461 1.39648 84.1367 1.01562 84.6152 1.01562C85.0938 1.01562 85.4746 1.39648 85.4746 1.875C85.4746 2.35352 85.0938 2.73438 84.6152 2.73438ZM81.1582 15L83.3164 4.84375H84.625L82.4668 15H81.1582ZM85.3965 15L87.291 5.92773H85.6406L85.875 4.84375H87.5156L87.7402 3.69141C88.1113 1.79688 89.1758 0.917969 91.041 0.917969C91.4512 0.917969 91.793 0.957031 92.1738 1.03516L91.9492 2.11914C91.7344 2.06055 91.3438 2.01172 91.0508 2.01172C89.9375 2.01172 89.2734 2.56836 89.0488 3.74023L88.8242 4.84375H91.207L90.9727 5.92773H88.5996L86.6953 15H85.3965ZM90.8848 18.6035C90.5332 18.6035 90.1523 18.5449 89.9375 18.4766L90.1328 17.3828C90.3379 17.4512 90.6211 17.5098 90.9141 17.5098C91.6562 17.5098 92.3496 17.0801 93.043 15.7617L93.4434 15.0195L91.7539 4.84375H93.043L94.3906 13.5938H94.4199L99.2539 4.84375H100.689L94.2148 16.1719C93.1113 18.1055 92.1836 18.6035 90.8848 18.6035Z" fill="white" fill-opacity="0.91"/>
</svg>
